<?xml version="1.0" encoding="UTF-8"?><svg id="Ebene_3_Image" xmlns="http://www.w3.org/2000/svg" viewBox="0 0 903.45 128.54"><defs><style>.cls-1{fill:#748437;}</style></defs><path class="cls-1" d="m142.17,28.01c.01.61,0,1.22.04,1.83.36,6.21,1.67,12.24,3.7,18.11,1.66,4.81,3.33,9.61,5.21,14.33,1.88,4.72,3.96,9.36,6.06,13.99,3.3,7.28,5.92,14.77,6.85,22.74.67,5.74.88,11.51.4,17.29-.14,1.72-1.08,2.99-2.19,4.11-.41.41-1.26.54-1.9.54-5.18,0-10.36-.08-15.53-.11-.99,0-1.99.05-2.97.17-1.33.17-2.1-.35-2.25-1.7-.07-.58,0-1.18-.01-1.77-.51-31.56-1.03-63.11-1.54-94.67-.01-.82-.07-1.64-.04-2.45.05-1.37.52-1.84,1.98-1.83,3,.02,6,.08,8.99.17,3.31.09,6.62.26,9.94.35,2.31.07,4.63.09,6.94.08,1.06,0,1.66.52,2.13,1.39,3.2,5.91,6.42,11.82,9.63,17.73,6.31,11.62,12.63,23.23,18.93,34.86,5.78,10.67,11.53,21.35,17.3,32.02.49.91,1.04,1.78,1.56,2.67.12-.01.24-.03.36-.04.06-.4.19-.8.15-1.19-.59-5.74-.9-11.52-1.9-17.19-.72-4.07-2.35-7.99-3.58-11.97-.2-.65-.48-1.28-.65-1.94-.88-3.41-2.86-6.24-4.62-9.21-3.23-5.46-6.46-10.94-9.38-16.57-1.27-2.46-1.77-5.33-1.71-8.19.1-5.22.17-10.45.32-15.67.06-2.17.3-4.34.48-6.51.11-1.33.95-1.98,2.31-1.92,2.36.09,4.72.16,7.08.2,4.31.07,8.63.1,12.94.18,2.22.05,3.26,1.16,3.49,3.78.13,1.45.1,2.91.14,4.36.31,12.73.64,25.46.92,38.19.4,18.23.77,36.46,1.14,54.69.04,1.9-.19,2.18-2.09,2.11-5.26-.21-10.51-.48-15.77-.73-3.08-.15-6.16-.32-9.24-.43-.79-.03-1.15-.29-1.54-1-1.03-1.91-2.27-3.69-3.34-5.58-6.45-11.39-12.88-22.78-19.31-34.18-5.11-9.06-10.22-18.12-15.32-27.19-4.39-7.8-8.77-15.6-13.16-23.39-.12-.22-.34-.39-.51-.58-.14.03-.28.06-.41.09Z"/><path class="cls-1" d="m347.22,57.33c1.49-1.26,2.7-2.42,4.05-3.4,4.74-3.44,9.88-5,15.86-4.17,4.61.64,8.85,2.26,13.19,3.7,4.1,1.36,8.34,2.1,12.71,2.01,1.39-.03,2.8.22,4.17.48,1.26.24,1.76,1.07,1.93,2.41.49,3.76-.32,7.42-.67,11.11-.28,2.85-.7,5.68-1.05,8.52-.31,2.49-.79,3.03-3.3,2.91-4.43-.23-8.88-.44-13.29-.97-6.38-.77-12.04-3.52-17.28-7.13-1.88-1.3-3.83-1.98-6.13-1.77-1.87.17-3.81-.17-5.73.9,2.19,3.28,4.19,6.62,6.53,9.71,4.16,5.53,9.37,9.91,15.69,12.78,2.58,1.17,5.35,2.04,8.12,2.64,2.72.59,5.55.93,8.33.89,7.23-.1,14.13-1.82,20.35-5.55,3.95-2.37,7.65-5.17,11.59-7.87-.06.88,0,1.95-.22,2.94-3.33,14.79-12.42,24.54-26.39,29.88-5.87,2.25-12.04,3.4-18.31,2.82-17.09-1.58-30.23-9.34-37.89-25.21-2.3-4.77-3.4-9.91-3.72-15.13-.4-6.75-.47-13.53-.41-20.3.04-4.71.43-9.43.84-14.13.61-6.92,3.31-13.07,7.38-18.63,3.23-4.42,7.58-7.46,12.7-9.27,7.71-2.73,15.66-4.18,23.89-4.16,4.62.01,9.25-.5,13.87-.47,7.9.05,15.8.35,23.69.52,1.11.03,1.55.43,1.54,1.64-.06,5.91,0,11.82-.04,17.73-.01,2.23-.18,4.45-.22,6.68-.01.8-.31,1.17-1.1,1.2-.63.02-1.27.1-1.9.1-7.59.01-15.18,0-22.77.03-1.18,0-2.06-.38-2.92-1.16-5.03-4.47-10.66-7.86-17.31-9.35-5.92-1.32-11.49-.64-16.47,3-4.36,3.19-6.87,7.66-8.31,12.78-.95,3.39-1.31,6.86-1.2,10.38,0,.21.09.41.21.89Z"/><path class="cls-1" d="m492.11,72.85c.28.61.5,1.15.77,1.66,7.32,14.12,14.65,28.23,21.97,42.34,1.27,2.44.41,3.97-2.39,4.04-2.36.05-4.72-.17-7.08-.19-5.41-.03-10.82-.02-16.23-.01-2.42,0-2.52-.12-3.3-2.35-.42-1.19-1.07-2.3-1.61-3.45-1.96-4.24-3.87-8.5-5.88-12.73-1.28-2.71-2.64-5.39-4.06-8.02-2.05-3.8-4.05-7.64-6.36-11.28-1.47-2.32-3.34-4.42-5.25-6.41-1.56-1.63-3.43-2.96-5.18-4.41-.65-.54-1.28-1.07-1.12-2.03.17-.98,1.01-1.1,1.75-1.24,4.57-.84,9.02-2.08,13.32-3.85,6.6-2.73,12.52-6.42,16.95-12.19,3.73-4.85,5.24-10.28,3.94-16.28-1.09-5.03-4.08-8.98-7.94-12.26-5.87-5-12.76-7.96-20.2-9.7-6.67-1.56-13.45-2.22-20.29-1.84-3.12.17-6.21.74-9.32,1.12-.79.1-1.1.53-1.02,1.3.31,2.93.57,5.87.94,8.8.77,6.13,1.43,12.27,2.44,18.36.94,5.64,2.27,11.23,4.72,16.45,2.64,5.63,5.5,11.16,8.19,16.77,3.34,6.96,4.98,14.4,6,21.99.88,6.55.69,13.15.64,19.74-.02,2.12-.49,2.37-2.66,2.39-6.81.06-13.62.13-20.43.3-3.44.09-3.51.05-3.51-3.45.03-14.92.02-29.83,0-44.75-.02-15.42-.05-30.83-.1-46.25-.01-4.27-.11-8.55-.17-12.82-.02-1.83.36-2.19,2.17-2.36,3.52-.34,7.04-.8,10.57-1.13,3.16-.29,6.34-.61,9.51-.68,5.76-.11,11.54-.29,17.29,0,10.66.53,21.14,2.15,30.93,6.75,4.11,1.93,7.82,4.45,10.76,7.98,2.69,3.22,4.22,6.88,4.63,11.13.37,3.75.32,7.48-.19,11.15-.73,5.21-2.46,10.14-5.73,14.4-4.14,5.39-9.56,9.12-15.62,12.01-.49.23-.97.49-1.46.73-.12.06-.23.15-.42.27Z"/><path class="cls-1" d="m257.85,15.04c8.46.38,15.23.58,21.98,1.03,6.38.42,12.58,1.81,18.4,4.55,1.96.92,3.9,1.99,5.63,3.29,5.05,3.8,9.69,7.97,13.36,13.28,3.26,4.72,6.15,9.57,7.95,14.98.96,2.9,1.47,6,1.82,9.05,1.06,9.38-.36,18.45-4.53,26.89-1.89,3.83-4.45,7.43-7.23,10.7-3.16,3.73-6.58,7.37-10.44,10.33-7.03,5.4-15.1,8.77-23.87,10.42-4.26.8-8.54,1.08-12.86,1.07-5.08-.02-10.16.27-15.24.24-5.9-.04-11.81-.28-17.71-.47-2.37-.08-3.03-.91-2.97-3.55.15-6.5.36-13,.45-19.49.13-10,.16-20.01.27-30.01.19-15.73.4-31.46.62-47.18.05-3.56.62-4.03,4.14-4.17,7.3-.3,14.6-.68,20.22-.95Zm.04,101.23c.79-.3,1.35-.44,1.86-.71,14-7.31,25.4-17.29,32.48-31.7,2.1-4.27,3.67-8.74,4.2-13.47.45-4.1.5-8.23-.19-12.34-.68-4.12-1.82-8.1-3.82-11.73-3.81-6.93-9.11-12.56-15.81-16.79-11.43-7.2-24.09-9.79-37.41-9.89-.83,0-1.15.3-1.12,1.12.05,1.41.03,2.82.1,4.22.31,5.44.88,10.88.91,16.32.03,5.49,1.32,10.59,3.3,15.62,1.91,4.86,3.65,9.78,5.51,14.66.8,2.12,1.69,4.2,2.56,6.29,1.22,2.93,2.79,5.76,3.65,8.8,2.28,8.05,4.08,16.21,3.8,24.67-.05,1.54,0,3.08,0,4.93Z"/><path class="cls-1" d="m792.58,72.88c.62,14.16-8.5,32.13-17.86,39.37-5.58,4.32-11.67,7.24-18.71,7.79-7.92.62-15.21-1.53-21.83-5.89-9.25-6.08-15.36-14.68-19.64-24.72-2.85-6.7-4.57-13.72-5.18-20.95-.65-7.64-.13-15.23,1.37-22.77.72-3.6,1.03-7.29,2.41-10.74,2.88-7.17,6.97-13.49,13.14-18.25,3.53-2.73,7.64-4.11,12.11-4.43,6.48-.45,12.95-.95,19.42-1.43.27-.02.54-.02.82-.03,4.4-.18,8.8-.41,13.2-.52,1.86-.05,3.72.21,5.58.19,2.81-.03,5.63-.32,8.44-.25,1.88.05,3.75.5,5.6.87.9.18,1.08,1.02,1.15,1.82.17,1.9.38,3.8.49,5.7.23,4.04.42,8.07.58,12.11.08,1.99-.94,3.26-2.89,3.42-3.12.25-6.26.35-9.38.49-4.45.2-8.89.47-13.34.5-1.33,0-2.84-.4-3.98-1.1-3.13-1.92-6.05-4.18-9.16-6.14-2.91-1.84-5.83-3.74-8.96-5.13-2.54-1.12-5.36-1.81-8.12-2.12-1.46-.16-3.21.63-4.57,1.43-6.39,3.77-10.35,9.39-12.1,16.59-2.05,8.39-.93,16.5,2.23,24.41,4.1,10.27,10.92,18.26,20.36,23.98,5.3,3.21,11.1,5.06,17.28,5.27,10.06.33,19.12-4.49,24.02-14.21,1.69-3.37,1.74-6.7,1.69-10.17-.03-2.23-2.04-3.65-4.6-3.2-1.54.27-3.12.73-4.51,1.44-3.04,1.54-5.97,3.28-8.94,4.95-3.31,1.86-6.8,3.28-10.56,3.87-3.85.61-7.59-.2-11.27-1.26-.7-.2-1.39-.43-2.11-.53-1.09-.15-1.61-.73-1.64-1.81,0-.27-.02-.55,0-.82.27-6.29-.83-12.39-2.4-18.44-.14-.52-.31-1.08-.25-1.6.15-1.34,1.8-2.06,2.93-1.29,2.9,1.97,6.14,2.34,9.5,2.02,5.75-.54,11.39-1.67,17.06-2.72,2.61-.48,5.41-.09,8.11.04,1.93.09,3.87.15,5.66,1.19,4.09,2.38,6.73,5.8,7.49,10.48.68,4.16,1.11,8.36,1.65,12.54-.1.01-.2.03-.3.04Z"/><path class="cls-1" d="m882.3,119.56c-3.18,0-6.36,0-9.54,0-.59,0-1.18-.06-1.77-.07-1.47-.03-2.24-.8-2.73-2.18-2.01-5.65-4.13-11.26-6.14-16.91-.35-.97-.84-1.39-1.84-1.4-5.04-.04-10.09-.07-15.13-.17-3.59-.08-7.17-.25-10.76-.43-.86-.04-1.31.21-1.64,1.04-2.2,5.62-4.44,11.23-6.69,16.83-.3.75-.69,1.48-1.14,2.16-1.19,1.81-3.2,1.93-4.98,1.93-6.22.03-12.45-.16-18.68-.27-.27,0-.54-.06-.81-.1-2.19-.33-3.02-1.45-2.4-3.61.77-2.66,1.72-5.27,2.59-7.9,7.93-23.93,15.86-47.86,23.79-71.78,2.33-7.03,4.66-14.05,7-21.07.16-.47.3-.96.53-1.4.46-.93,1.17-1.3,2.24-1.03.74.19,1.52.3,2.28.3,6.95.02,13.91.02,20.86-.01,1.23,0,1.81.64,2.19,1.67.84,2.3,1.71,4.6,2.54,6.91,5.95,16.54,11.88,33.08,17.84,49.61,3.89,10.81,7.83,21.61,11.73,32.41,1.28,3.54,2.54,7.1,3.78,10.65.89,2.55-.4,4.39-3.03,4.39-3.36,0-6.72,0-10.08,0,0,.14,0,.29,0,.43Zm-48.96-97.67c-.14.01-.27.03-.41.04-.17.45-.39.9-.51,1.37-1.82,7.26-3.48,14.54-2.54,22.13.69,5.54,1.18,11.1,1.99,16.62.45,3.09,1.27,6.13,2.08,9.15,1.74,6.5,1.16,13.07.71,19.64-.12,1.69-.16,1.76,1.57,1.81,6.45.18,12.89.37,19.34.55,1.21.03,2.43,0,3.9,0-8.75-23.87-17.44-47.59-26.13-71.31Z"/><path class="cls-1" d="m38.44,62.23c.25-.71.46-1.45.76-2.14,1.93-4.36,3.75-8.77,5.87-13.04,3.68-7.41,8.95-13.64,14.82-19.4,2.64-2.59,5.45-4.89,8.76-6.64,3.95-2.08,8.07-3.23,12.52-3.23,2,0,4,0,6,.01,2.39.02,3.46.96,3.56,3.33.15,3.5.17,7,.28,10.5.09,2.72.27,5.45.32,8.17.03,1.91-.19,2.25-2.07,2.57-2.14.36-4.32.51-6.49.68-3.43.26-6.87.5-10.31.68-4.38.23-8.11,2.14-11.69,4.47-3.53,2.3-6.54,5.17-9.33,8.31-1.87,2.1-3.85,4.12-5.59,6.32-2.09,2.62-3.98,5.4-5.95,8.12-.15.21-.22.47-.38.82.39.06.69.15.98.15,6.82-.03,13.63-.11,20.45-.07,4.19.03,7.93,1.43,10.48,4.86,2.65,3.56,5.17,7.25,7.4,11.09,5.14,8.88,10.09,17.88,15.08,26.85.73,1.31,1.32,2.69,1.94,4.05.53,1.16.34,1.51-.93,1.5-3.22-.04-6.45-.16-9.67-.22-4.63-.1-9.26-.18-13.89-.25-1.36-.02-2.73-.03-4.09,0-2.33.04-2.41,0-3.22-2.25-1.85-5.07-3.56-10.21-5.6-15.21-1.72-4.2-3.97-8.17-5.71-12.37-1.5-3.62-3.58-6.83-5.86-9.94-1.54-2.1-3.55-3.51-6.24-3.67-1.49-.09-1.68.08-1.74,1.56-.09,2.18-.14,4.36-.17,6.54-.13,8.77-.24,17.54-.38,26.32-.03,1.68-.14,3.36-.19,5.04-.08,2.85-1.19,4.08-4.1,4.3-1.58.12-3.17.06-4.76.05-3.68-.02-7.36.02-11.03-.1-2.2-.07-2.63-.68-2.65-2.89-.13-18-.25-36-.41-54-.12-13.45-.29-26.9-.43-40.35-.03-2.71.5-3.24,3.23-3.33,5.81-.19,11.62-.39,17.43-.53,2.14-.05,3.18,1.17,3.14,3.34-.18,10.23-.34,20.45-.51,30.68-.04,2.63-.13,5.27-.18,7.9,0,.47.09.94.14,1.42.13,0,.27.01.4.02Z"/><path class="cls-1" d="m659.22,120.12c-7.79-.34-14.86-3.08-21.01-8.17-8.95-7.41-14.15-17.13-17.14-28.17-1.67-6.17-2.6-12.49-2.41-18.86.44-14.26,4.02-27.55,13.08-38.95,3.47-4.36,7.62-7.99,12.48-10.64,3.71-2.02,7.76-3.29,12.03-3.68,13.38-1.21,23.41,4.81,31.47,14.8,6.7,8.3,10.35,17.99,11.89,28.46,2.01,13.66.48,26.91-5.36,39.51-3.6,7.76-8.61,14.43-15.7,19.36-5.74,3.99-12.1,6.15-19.33,6.33Zm28.77-33.54c-.14-1.38-.23-3.34-.57-5.25-1.71-9.82-5.73-18.79-11.01-27.09-3.71-5.84-8.28-11.15-12.67-16.53-2.66-3.26-5.69-6.23-8.64-9.26-.77-.79-1.79-1.43-2.8-1.88-3.31-1.48-6.63-.96-9.95.12-3.32,1.08-5.54,3.5-7.78,5.97-1.61,1.78-2.64,3.78-3.06,6.12-.88,4.94-.82,9.83.43,14.72,1.62,6.36,4.5,12.17,7.81,17.76,3.12,5.27,6.46,10.41,9.72,15.6,3.54,5.63,7.55,10.91,12.22,15.65.66.67,1.37,1.39,2.19,1.8,2.94,1.49,6.12,1.99,9.39,1.72,1.75-.15,3.58-.2,5.05-1.38,1.34-1.08,2.75-2.13,3.92-3.38,3.69-3.96,5.85-8.58,5.76-14.68Z"/><path class="cls-1" d="m584.56,57.24c1-1.35,1.84-2.46,2.65-3.6,7.7-10.7,15.4-21.4,23.1-32.1.8-1.11,1.53-2.26,2.33-3.36.7-.97,1.7-1.94,2.83-1.31,1.1.62,1.9,1.83,2.72,2.86.15.2-.14.87-.37,1.23-1.38,2.08-2.76,4.16-4.22,6.19-7.78,10.86-15.58,21.72-23.39,32.56-.87,1.2-1.2,2.44-1.16,3.93.15,4.63.19,9.27.22,13.91.08,11.64.13,23.28.19,34.92,0,1.55.07,3.09-.02,4.64-.12,2.19-.77,2.84-2.94,2.89-6.68.14-13.36.24-20.04.32-2.06.02-2.15-.33-2.06-2.46.09-2.35-.16-4.71-.27-7.07-.02-.36-.1-.72-.11-1.09-.21-6.95-.4-13.9-.61-20.85-.17-5.59-.34-11.17-.58-16.76-.03-.68-.37-1.39-.7-2.02-6.34-11.96-12.7-23.92-19.05-35.87-2.17-4.09-4.34-8.19-6.47-12.3-.59-1.14-1.11-2.33-1.57-3.54-.35-.92-.07-1.71.84-2.18.31-.16.69-.24,1.04-.26,6.85-.31,13.7-.62,20.55-.89,2.45-.1,2.76.29,3.94,2.49,1.93,3.6,4.03,7.11,6.09,10.65,5.29,9.07,10.59,18.13,15.89,27.19.32.54.67,1.06,1.18,1.88Z"/><path class="cls-1" d="m105.33,69.07c0-13.14,0-26.29,0-39.43,0-2.77,0-5.54.02-8.31.02-3.51.43-3.93,3.88-3.87,5.13.1,10.27.23,15.4.32.72.01,1.44-.14,2.16-.26,1.83-.29,2.63.33,2.73,2.16.66,11.5.02,23,.07,34.5.06,11.96-.11,23.92-.15,35.88-.03,9.23-.02,18.46-.04,27.7,0,2.19-.52,2.82-2.72,2.76-4.86-.12-9.71-.33-14.57-.53-1.5-.06-3-.1-4.48-.3-2.07-.28-2.36-.67-2.37-2.73,0-15.96,0-31.93,0-47.89.02,0,.04,0,.06,0Z"/></svg>